# xmcd
#
# Track frame offsets:
#	150
#	19432
#	31337
#	62182
#	77522
#	92652
#	108022
#	133405
#	153495
#	175097
#	191780
#
# Disc length: 2773 seconds
#
# Revision: 4
# Processed by: cddbd v1.5.2PL0 Copyright (c) Steve Scherf et al.
# Submitted via: audiograbber 1.83.01
#
DISCID=8e0ad30b
DTITLE=Magic Slim and the Teardrops - Snakebite
DYEAR=2000
DGENRE=Blues
TTITLE0=What's Wrong
TTITLE1=Snakebite
TTITLE2=Please Don't Dog Me
TTITLE3=Key to Your Door
TTITLE4=Shake It
TTITLE5=I Ain't Lookin' for No Love
TTITLE6=Country Boy
TTITLE7=Lump on Your Stump
TTITLE8=Lonesome Trouble
TTITLE9=The Man You Need
TTITLE10=Mind Your Own Business
EXTD=Magic Slim - vocals and lead guitar on all tracks except track 9\n\nNickHo
EXTD=lt:  bass and background vocals\n\nMichael Dotson:  rythm guitar on allsel
EXTD=ections, slide guitar on track 2, and lead vocals and lead guitar ontrack 
EXTD=9\n\nAllen Kirk:  drums
EXTT0=
EXTT1=
EXTT2=
EXTT3=
EXTT4=
EXTT5=
EXTT6=
EXTT7=
EXTT8=
EXTT9=
EXTT10=
PLAYORDER=
